<svg width="32" height="32" viewBox="0 0 32 32" fill="none" xmlns="http://www.w3.org/2000/svg">
<g filter="url(#filter0_d_464_639)">
<path d="M16 6C9.376 6 4 11.376 4 18C4 24.624 9.376 30 16 30C22.624 30 28 24.624 28 18C28 11.376 22.624 6 16 6ZM17.2 26.4H14.8V24H17.2V26.4ZM19.684 17.1L18.604 18.204C17.74 19.08 17.2 19.8 17.2 21.6H14.8V21C14.8 19.68 15.34 18.48 16.204 17.604L17.692 16.092C18.136 15.66 18.4 15.06 18.4 14.4C18.4 13.08 17.32 12 16 12C14.68 12 13.6 13.08 13.6 14.4H11.2C11.2 11.748 13.348 9.6 16 9.6C18.652 9.6 20.8 11.748 20.8 14.4C20.8 15.456 20.368 16.416 19.684 17.1Z" fill="white"/>
</g>
<defs>
<filter id="filter0_d_464_639" x="0" y="0" width="32" height="32" filterUnits="userSpaceOnUse" color-interpolation-filters="sRGB">
<feFlood flood-opacity="0" result="BackgroundImageFix"/>
<feColorMatrix in="SourceAlpha" type="matrix" values="0 0 0 0 0 0 0 0 0 0 0 0 0 0 0 0 0 0 127 0" result="hardAlpha"/>
<feOffset dy="-2"/>
<feGaussianBlur stdDeviation="2"/>
<feComposite in2="hardAlpha" operator="out"/>
<feColorMatrix type="matrix" values="0 0 0 0 0 0 0 0 0 0 0 0 0 0 0 0 0 0 0.25 0"/>
<feBlend mode="normal" in2="BackgroundImageFix" result="effect1_dropShadow_464_639"/>
<feBlend mode="normal" in="SourceGraphic" in2="effect1_dropShadow_464_639" result="shape"/>
</filter>
</defs>
</svg>
