<svg width="28" height="28" viewBox="0 0 28 28" fill="none" xmlns="http://www.w3.org/2000/svg">
<g filter="url(#filter0_d_464_642)">
<path d="M17 8V15H7.17L6.58 15.59L6 16.17V8H17ZM18 6H5C4.45 6 4 6.45 4 7V21L8 17H18C18.55 17 19 16.55 19 16V7C19 6.45 18.55 6 18 6ZM23 10H21V19H8V21C8 21.55 8.45 22 9 22H20L24 26V11C24 10.45 23.55 10 23 10Z" fill="white"/>
</g>
<defs>
<filter id="filter0_d_464_642" x="0" y="0" width="28" height="28" filterUnits="userSpaceOnUse" color-interpolation-filters="sRGB">
<feFlood flood-opacity="0" result="BackgroundImageFix"/>
<feColorMatrix in="SourceAlpha" type="matrix" values="0 0 0 0 0 0 0 0 0 0 0 0 0 0 0 0 0 0 127 0" result="hardAlpha"/>
<feOffset dy="-2"/>
<feGaussianBlur stdDeviation="2"/>
<feComposite in2="hardAlpha" operator="out"/>
<feColorMatrix type="matrix" values="0 0 0 0 0 0 0 0 0 0 0 0 0 0 0 0 0 0 0.25 0"/>
<feBlend mode="normal" in2="BackgroundImageFix" result="effect1_dropShadow_464_642"/>
<feBlend mode="normal" in="SourceGraphic" in2="effect1_dropShadow_464_642" result="shape"/>
</filter>
</defs>
</svg>
