<svg width="106" height="106" viewBox="0 0 106 106" fill="none" xmlns="http://www.w3.org/2000/svg">
<path d="M73.6111 41.2221C78.4896 41.2221 82.4444 37.2673 82.4444 32.3888C82.4444 27.5103 78.4896 23.5555 73.6111 23.5555C68.7326 23.5555 64.7778 27.5103 64.7778 32.3888C64.7778 37.2673 68.7326 41.2221 73.6111 41.2221Z" fill="white"/>
<path d="M0 11.7778C0 5.27308 5.27309 0 11.7778 0H94.2222C100.727 0 106 5.27308 106 11.7778V94.222C106 100.727 100.727 106 94.2222 106H11.7778C5.27309 106 0 100.727 0 94.222V11.7778ZM94.2222 11.7778H11.7778V58.4141L31.6548 42.5126C33.8055 40.792 36.8616 40.792 39.0123 42.5126L64.341 62.7754L72.3917 54.7247C74.6915 52.4249 78.4201 52.4249 80.7198 54.7247L94.2222 68.227V11.7778ZM11.7778 94.222H94.2222V84.8833L76.5558 67.2169L68.9421 74.8306C66.8203 76.9524 63.4424 77.1395 61.0992 75.2649L35.3335 54.6524L11.7778 73.497V94.222Z" fill="white"/>
</svg>
