<svg width="28" height="33" viewBox="0 0 28 33" fill="none" xmlns="http://www.w3.org/2000/svg">
<g filter="url(#filter0_d_464_645)">
<path d="M16.5 6H6.5C5.125 6 4.0125 7.125 4.0125 8.5L4 28.5C4 29.875 5.1125 31 6.4875 31H21.5C22.875 31 24 29.875 24 28.5V13.5L16.5 6ZM6.5 8.5H15.25L21.5 14.75V25.475L19.2 23.175C20.8 20.75 20.5375 17.4625 18.4 15.325C17.1875 14.1125 15.6 13.5 14 13.5C12.4 13.5 10.8125 14.1125 9.5875 15.325C7.15 17.7625 7.15 21.7125 9.5875 24.1375C10.8 25.35 12.4 25.9625 14 25.9625C15.2 25.9625 16.4 25.6125 17.4375 24.925L21 28.5H6.5V8.5ZM16.6375 22.375C15.9375 23.075 15 23.475 14 23.475C13 23.475 12.0625 23.0875 11.3625 22.375C10.6625 21.675 10.2625 20.7375 10.2625 19.7375C10.2625 18.7375 10.65 17.8 11.3625 17.1C12.0625 16.3875 13 16 14 16C15 16 15.9375 16.3875 16.6375 17.1C17.3375 17.8 17.7375 18.7375 17.7375 19.7375C17.7375 20.7375 17.35 21.675 16.6375 22.375Z" fill="white"/>
</g>
<defs>
<filter id="filter0_d_464_645" x="0" y="0" width="28" height="33" filterUnits="userSpaceOnUse" color-interpolation-filters="sRGB">
<feFlood flood-opacity="0" result="BackgroundImageFix"/>
<feColorMatrix in="SourceAlpha" type="matrix" values="0 0 0 0 0 0 0 0 0 0 0 0 0 0 0 0 0 0 127 0" result="hardAlpha"/>
<feOffset dy="-2"/>
<feGaussianBlur stdDeviation="2"/>
<feComposite in2="hardAlpha" operator="out"/>
<feColorMatrix type="matrix" values="0 0 0 0 0 0 0 0 0 0 0 0 0 0 0 0 0 0 0.25 0"/>
<feBlend mode="normal" in2="BackgroundImageFix" result="effect1_dropShadow_464_645"/>
<feBlend mode="normal" in="SourceGraphic" in2="effect1_dropShadow_464_645" result="shape"/>
</filter>
</defs>
</svg>
