<svg width="106" height="96" viewBox="0 0 106 96" fill="none" xmlns="http://www.w3.org/2000/svg">
<path d="M0 10.6666C0 4.77562 4.74578 0 10.6 0H95.4C101.254 0 106 4.77562 106 10.6666V69.3332C106 75.2242 101.254 79.9998 95.4 79.9998H71.0953L56.7477 94.4377C54.6779 96.5205 51.3221 96.5205 49.2523 94.4377L34.9047 79.9998H10.6C4.74578 79.9998 0 75.2242 0 69.3332V10.6666ZM95.4 10.6666H10.6V69.3332H37.1C38.5056 69.3332 39.8537 69.8951 40.8477 70.8952L53 83.124L65.1523 70.8952C66.1463 69.8951 67.4944 69.3332 68.9 69.3332H95.4V10.6666ZM21.2 29.3333C21.2 26.3877 23.5729 23.9999 26.5 23.9999H79.5C82.4271 23.9999 84.8 26.3877 84.8 29.3333C84.8 32.2788 82.4271 34.6666 79.5 34.6666H26.5C23.5729 34.6666 21.2 32.2788 21.2 29.3333ZM21.2 50.6665C21.2 47.721 23.5729 45.3332 26.5 45.3332H58.3C61.2271 45.3332 63.6 47.721 63.6 50.6665C63.6 53.612 61.2271 55.9999 58.3 55.9999H26.5C23.5729 55.9999 21.2 53.612 21.2 50.6665Z" fill="white"/>
</svg>
