<svg width="106" height="116" viewBox="0 0 106 116" fill="none" xmlns="http://www.w3.org/2000/svg">
<path d="M0 12.2105C0 5.46684 4.74578 0 10.6 0H95.4C101.254 0 106 5.46684 106 12.2105V79.3684C106 86.1121 101.254 91.5789 95.4 91.5789H58.3V103.789H74.2C77.1271 103.789 79.5 106.523 79.5 109.895C79.5 113.267 77.1271 116 74.2 116H31.8C28.8729 116 26.5 113.267 26.5 109.895C26.5 106.523 28.8729 103.789 31.8 103.789H47.7V91.5789H10.6C4.74579 91.5789 0 86.1121 0 79.3684V12.2105ZM95.4 79.3684V12.2105H10.6V79.3684H95.4Z" fill="white"/>
</svg>
