<svg width="63" height="109" viewBox="0 0 63 109" fill="none" xmlns="http://www.w3.org/2000/svg">
<path d="M0 12.1111C0 5.42232 4.70101 0 10.5 0H52.5C58.299 0 63 5.42232 63 12.1111V96.8887C63 103.577 58.299 109 52.5 109H10.5C4.70101 109 0 103.577 0 96.8887V12.1111ZM52.5 12.1111H10.5V96.8887H52.5V12.1111Z" fill="white"/>
<path d="M36.75 84.7776C36.75 88.122 34.3995 90.8331 31.5 90.8331C28.6005 90.8331 26.25 88.122 26.25 84.7776C26.25 81.4332 28.6005 78.722 31.5 78.722C34.3995 78.722 36.75 81.4332 36.75 84.7776Z" fill="white"/>
</svg>
