<svg preserveAspectRatio="xMidYMid meet" data-bbox="37.145 12 134.711 179.999" viewBox="37.145 12 134.711 179.999" height="45" width="33" xmlns="http://www.w3.org/2000/svg" data-type="color" role="presentation" aria-hidden="true"><defs><style>#comp-jjiazk1x svg [data-color="1"] {fill: #FFFFFF;}</style></defs>
    <g>
        <path d="M128.996 95a2.999 2.999 0 0 1-2.983-2.729 2.999 2.999 0 0 1 2.716-3.259c11.711-1.064 24.904-9.021 36.445-21.922-11.392-18.39-32.448-22.094-32.667-22.13a3 3 0 0 1 .986-5.919c1.035.173 25.509 4.482 37.985 26.941a3 3 0 0 1-.345 3.41c-17.625 20.562-33.793 24.863-41.862 25.597a3.59 3.59 0 0 1-.275.011zm-4.811-10.877V48.37a3 3 0 1 0-6 0v35.753a3 3 0 1 0 6 0zM43.144 72.206c0-22.215 21.867-45.047 29.63-52.453l7.669 13.42a3 3 0 0 0 5.21-2.976l-9.534-16.685a3 3 0 0 0-4.557-.79c-1.406 1.205-34.417 29.841-34.417 59.483a3 3 0 0 0 5.999.001zm81.041 50.055v-19.069a3 3 0 1 0-6 0v16.069H97.349a3 3 0 1 0 0 6h23.835a3 3 0 0 0 3.001-3zm-1.361 69.252a3 3 0 0 0 1.36-2.513v-47.671a3.002 3.002 0 0 0-3.948-2.846l-28.603 9.534a2.999 2.999 0 0 0-1.897 3.794 2.996 2.996 0 0 0 3.795 1.897l24.654-8.218v38.911l-13.977-6.148a3 3 0 1 0-2.416 5.492l18.185 8a3 3 0 0 0 2.847-.232zm1.063-26.349a3 3 0 0 0-3-3H97.349a3 3 0 1 0 0 6h23.538a3 3 0 0 0 3-3zm11.599-109.643a4.767 4.767 0 1 0 0 9.533 4.767 4.767 0 0 0 0-9.533zM95.085 178.736a3.001 3.001 0 0 0-.225-3.606c-12.81-14.945-16.601-34.109-10.141-51.266 5.56-14.764 17.869-25.2 32.123-27.237a3 3 0 1 0-.848-5.939c-16.423 2.346-30.559 14.249-36.89 31.062-6.032 16.02-4.138 33.549 4.898 48.569-16.5-8.465-29.193-24.336-34.837-44.101-6.066-21.244-2.35-42.488 9.941-56.828 27.131-31.652 61.343-27.625 61.688-27.581a3.007 3.007 0 0 0 3.364-2.578 3 3 0 0 0-2.577-3.37c-1.526-.204-37.705-4.588-67.03 29.625-13.606 15.874-17.776 39.193-11.155 62.38 7.238 25.348 25.288 44.815 48.283 52.076a3 3 0 0 0 3.406-1.206z" fill="#fff" data-color="1"></path>
    </g>
</svg>